<svg xmlns="http://www.w3.org/2000/svg" viewBox="0 0 750 500"><g id="freepik--background-simple--inject-62"><path d="M632.12,128.47S529.34,23.2,395.77,15.08,184.31,93.23,147.4,144.69s-129,137.2-118.14,215.72,117.33,138.08,269.85,111.9,196.74-36.1,266.23-16.24,159.74-9.93,161.54-122.74S632.12,128.47,632.12,128.47Z" style="fill:#EEBBC3"></path><path d="M632.12,128.47S529.34,23.2,395.77,15.08,184.31,93.23,147.4,144.69s-129,137.2-118.14,215.72,117.33,138.08,269.85,111.9,196.74-36.1,266.23-16.24,159.74-9.93,161.54-122.74S632.12,128.47,632.12,128.47Z" style="fill:#fff;opacity:0.7000000000000001"></path></g><g id="freepik--Bricks--inject-62"><rect x="374.76" y="221.52" width="30.88" height="12.5" style="opacity:0.2"></rect><rect x="363" y="177.04" width="30.88" height="12.5" style="opacity:0.2"></rect><rect x="251.26" y="221.15" width="30.88" height="12.5" style="opacity:0.2"></rect><rect x="296.1" y="109.38" width="30.88" height="12.5" style="opacity:0.2"></rect><rect x="329.92" y="109.38" width="30.88" height="12.5" style="opacity:0.2"></rect><rect x="198.33" y="313.56" width="30.88" height="12.5" style="opacity:0.2"></rect><rect x="182.16" y="329" width="30.88" height="12.5" style="opacity:0.2"></rect><rect x="346.09" y="194.32" width="30.88" height="12.5" style="opacity:0.1"></rect><rect x="392.4" y="264.52" width="30.88" height="12.5" style="opacity:0.1"></rect><rect x="211.56" y="283.64" width="30.88" height="12.5" style="opacity:0.1"></rect><rect x="246.85" y="283.64" width="30.88" height="12.5" style="opacity:0.1"></rect><rect x="249.79" y="265.99" width="30.88" height="12.5" style="opacity:0.1"></rect><rect x="381.37" y="194.32" width="30.88" height="12.5" style="opacity:0.1"></rect><rect x="289.48" y="327.74" width="30.88" height="12.5" style="opacity:0.2"></rect><rect x="272.58" y="345.02" width="30.88" height="12.5" style="opacity:0.1"></rect><rect x="307.86" y="345.02" width="30.88" height="12.5" style="opacity:0.1"></rect><rect x="139.81" y="172.2" width="30.88" height="12.5" style="opacity:0.2"></rect><rect x="122.9" y="189.47" width="30.88" height="12.5" style="opacity:0.1"></rect><rect x="158.18" y="189.47" width="30.88" height="12.5" style="opacity:0.1"></rect><rect x="127.76" y="265.26" width="30.88" height="12.5" style="opacity:0.2"></rect><rect x="264.49" y="205.5" width="30.88" height="12.5" style="opacity:0.1"></rect><rect x="218.18" y="328.27" width="30.88" height="12.5" style="opacity:0.1"></rect><rect x="83.44" y="366.79" width="30.88" height="12.5" style="opacity:0.2"></rect><rect x="67.26" y="382.23" width="30.88" height="12.5" style="opacity:0.2"></rect><rect x="96.67" y="336.86" width="30.88" height="12.5" style="opacity:0.1"></rect><rect x="131.95" y="336.86" width="30.88" height="12.5" style="opacity:0.1"></rect><rect x="174.59" y="380.97" width="30.88" height="12.5" style="opacity:0.2"></rect><rect x="157.68" y="398.25" width="30.88" height="12.5" style="opacity:0.1"></rect><rect x="192.97" y="398.25" width="30.88" height="12.5" style="opacity:0.1"></rect><rect x="103.28" y="381.49" width="30.88" height="12.5" style="opacity:0.1"></rect><rect x="577.81" y="102.42" width="30.88" height="12.5" style="opacity:0.2"></rect><rect x="561.64" y="117.86" width="30.88" height="12.5" style="opacity:0.2"></rect><rect x="591.04" y="72.5" width="30.88" height="12.5" style="opacity:0.1"></rect><rect x="626.33" y="72.5" width="30.88" height="12.5" style="opacity:0.1"></rect><rect x="668.97" y="116.6" width="30.88" height="12.5" style="opacity:0.2"></rect><rect x="652.06" y="133.88" width="30.88" height="12.5" style="opacity:0.1"></rect><rect x="687.34" y="133.88" width="30.88" height="12.5" style="opacity:0.1"></rect><rect x="651.82" y="366.13" width="30.88" height="12.5" style="opacity:0.2"></rect><rect x="634.91" y="383.4" width="30.88" height="12.5" style="opacity:0.1"></rect><rect x="670.19" y="383.4" width="30.88" height="12.5" style="opacity:0.1"></rect><rect x="597.66" y="117.13" width="30.88" height="12.5" style="opacity:0.1"></rect><rect x="495.5" y="131.35" width="30.88" height="12.5" style="opacity:0.2"></rect><rect x="479.33" y="146.79" width="30.88" height="12.5" style="opacity:0.2"></rect><rect x="508.73" y="101.42" width="30.88" height="12.5" style="opacity:0.1"></rect><rect x="544.02" y="101.42" width="30.88" height="12.5" style="opacity:0.1"></rect><rect x="546.96" y="83.78" width="30.88" height="12.5" style="opacity:0.1"></rect><rect x="586.66" y="145.53" width="30.88" height="12.5" style="opacity:0.2"></rect><rect x="569.75" y="162.81" width="30.88" height="12.5" style="opacity:0.1"></rect><rect x="605.04" y="162.81" width="30.88" height="12.5" style="opacity:0.1"></rect><rect x="515.35" y="146.05" width="30.88" height="12.5" style="opacity:0.1"></rect><rect x="313.74" y="93.94" width="30.88" height="12.5" style="opacity:0.1"></rect><rect x="331.41" y="62.61" width="30.88" height="12.5" style="opacity:0.2"></rect><rect x="365.23" y="62.61" width="30.88" height="12.5" style="opacity:0.2"></rect><rect x="349.06" y="47.18" width="30.88" height="12.5" style="opacity:0.1"></rect><rect x="254.08" y="161.03" width="30.88" height="12.5" style="opacity:0.2"></rect><rect x="287.89" y="161.03" width="30.88" height="12.5" style="opacity:0.2"></rect><rect x="271.72" y="145.59" width="30.88" height="12.5" style="opacity:0.1"></rect><rect x="110.11" y="223.88" width="30.88" height="12.5" style="opacity:0.2"></rect><rect x="127.76" y="208.44" width="30.88" height="12.5" style="opacity:0.1"></rect><rect x="206.41" y="133.3" width="30.88" height="12.5" style="opacity:0.1"></rect><rect x="313.74" y="221.52" width="30.88" height="12.5" style="opacity:0.2"></rect><rect x="651.99" y="221.52" width="30.88" height="12.5" style="opacity:0.2"></rect><rect x="528.49" y="221.15" width="30.88" height="12.5" style="opacity:0.2"></rect><rect x="475.56" y="313.56" width="30.88" height="12.5" style="opacity:0.2"></rect><rect x="623.32" y="194.32" width="30.88" height="12.5" style="opacity:0.1"></rect><rect x="669.64" y="264.52" width="30.88" height="12.5" style="opacity:0.1"></rect><rect x="488.8" y="283.64" width="30.88" height="12.5" style="opacity:0.1"></rect><rect x="524.08" y="283.64" width="30.88" height="12.5" style="opacity:0.1"></rect><rect x="527.02" y="265.99" width="30.88" height="12.5" style="opacity:0.1"></rect><rect x="658.61" y="194.32" width="30.88" height="12.5" style="opacity:0.1"></rect><rect x="566.72" y="327.74" width="30.88" height="12.5" style="opacity:0.2"></rect><rect x="549.81" y="345.02" width="30.88" height="12.5" style="opacity:0.1"></rect><rect x="585.1" y="345.02" width="30.88" height="12.5" style="opacity:0.1"></rect><rect x="649.91" y="327.74" width="30.88" height="12.5" style="opacity:0.2"></rect><rect x="633" y="345.02" width="30.88" height="12.5" style="opacity:0.1"></rect><rect x="668.28" y="345.02" width="30.88" height="12.5" style="opacity:0.1"></rect><rect x="541.73" y="205.5" width="30.88" height="12.5" style="opacity:0.1"></rect><rect x="495.41" y="328.27" width="30.88" height="12.5" style="opacity:0.1"></rect><rect x="590.98" y="221.52" width="30.88" height="12.5" style="opacity:0.2"></rect><rect x="196.19" y="68.49" width="30.88" height="12.5" style="opacity:0.2"></rect><rect x="71.45" y="137" width="30.88" height="12.5" style="opacity:0.1"></rect><rect x="109.95" y="147.78" width="30.88" height="12.5" style="opacity:0.1"></rect><rect x="34.49" y="160.1" width="30.88" height="12.5" style="opacity:0.1"></rect><rect x="90.27" y="160.66" width="30.88" height="12.5" style="opacity:0.1"></rect><rect x="177.3" y="86.02" width="30.88" height="12.5" style="opacity:0.2"></rect><rect x="461.18" y="68.49" width="30.88" height="12.5" style="opacity:0.2"></rect><rect x="442.29" y="86.02" width="30.88" height="12.5" style="opacity:0.2"></rect></g><g id="freepik--Plant--inject-62"><line x1="31.52" y1="253.7" x2="44.7" y2="380.01" style="fill:none;stroke:#263238;stroke-miterlimit:10;stroke-width:2px"></line><line x1="42.58" y1="355.84" x2="36.6" y2="349.53" style="fill:none;stroke:#263238;stroke-miterlimit:10;stroke-width:2px"></line><path d="M38.41,351.42A6.74,6.74,0,0,0,36,346.35c-1.54-1.37-9.61-4.77-10.38-1.92C24.83,347.52,33.09,353.59,38.41,351.42Z" style="fill:#EEBBC3;stroke:#263238;stroke-miterlimit:10"></path><line x1="38.41" y1="351.42" x2="30.73" y2="346.63" style="fill:none;stroke:#263238;stroke-miterlimit:10;stroke-width:0.5px"></line><line x1="44.07" y1="370.2" x2="38.1" y2="363.89" style="fill:none;stroke:#263238;stroke-miterlimit:10;stroke-width:2px"></line><path d="M39.91,365.78a6.71,6.71,0,0,0-2.37-5.06c-1.54-1.38-9.61-4.77-10.38-1.93C26.33,361.88,34.59,368,39.91,365.78Z" style="fill:#EEBBC3;stroke:#263238;stroke-miterlimit:10"></path><line x1="39.91" y1="365.78" x2="32.23" y2="360.99" style="fill:none;stroke:#263238;stroke-miterlimit:10;stroke-width:0.5px"></line><line x1="38.92" y1="320.79" x2="32.94" y2="314.47" style="fill:none;stroke:#263238;stroke-miterlimit:10;stroke-width:2px"></line><path d="M34.76,316.37a6.76,6.76,0,0,0-2.38-5.07c-1.54-1.37-9.61-4.77-10.37-1.93C21.17,312.47,29.44,318.54,34.76,316.37Z" style="fill:#EEBBC3;stroke:#263238;stroke-miterlimit:10"></path><line x1="34.76" y1="316.37" x2="27.07" y2="311.58" style="fill:none;stroke:#263238;stroke-miterlimit:10;stroke-width:0.5px"></line><line x1="40.42" y1="335.15" x2="34.44" y2="328.84" style="fill:none;stroke:#263238;stroke-miterlimit:10;stroke-width:2px"></line><path d="M36.26,330.73a6.77,6.77,0,0,0-2.38-5.07c-1.54-1.37-9.61-4.76-10.37-1.92C22.67,326.83,30.93,332.9,36.26,330.73Z" style="fill:#EEBBC3;stroke:#263238;stroke-miterlimit:10"></path><line x1="36.26" y1="330.73" x2="28.57" y2="325.94" style="fill:none;stroke:#263238;stroke-miterlimit:10;stroke-width:0.5px"></line><line x1="36.48" y1="297.45" x2="30.51" y2="291.14" style="fill:none;stroke:#263238;stroke-miterlimit:10;stroke-width:2px"></line><path d="M32.32,293A6.77,6.77,0,0,0,29.94,288c-1.53-1.37-9.6-4.76-10.37-1.92C18.74,289.13,27,295.2,32.32,293Z" style="fill:#EEBBC3;stroke:#263238;stroke-miterlimit:10"></path><line x1="32.32" y1="293.03" x2="24.64" y2="288.24" style="fill:none;stroke:#263238;stroke-miterlimit:10;stroke-width:0.5px"></line><line x1="34.04" y1="274.02" x2="28.06" y2="267.7" style="fill:none;stroke:#263238;stroke-miterlimit:10;stroke-width:2px"></line><path d="M29.88,269.59a6.75,6.75,0,0,0-2.38-5.06c-1.54-1.37-9.61-4.77-10.38-1.93C16.29,265.7,24.55,271.77,29.88,269.59Z" style="fill:#EEBBC3;stroke:#263238;stroke-miterlimit:10"></path><line x1="29.88" y1="269.59" x2="22.19" y2="264.81" style="fill:none;stroke:#263238;stroke-miterlimit:10;stroke-width:0.5px"></line><line x1="41.57" y1="347.34" x2="46.11" y2="339.93" style="fill:none;stroke:#263238;stroke-miterlimit:10;stroke-width:2px"></line><path d="M44.73,342.16A6.74,6.74,0,0,1,46,336.71c1.22-1.66,8.41-6.65,9.75-4C57.21,335.54,50.38,343.18,44.73,342.16Z" style="fill:#EEBBC3;stroke:#263238;stroke-miterlimit:10"></path><line x1="44.73" y1="342.16" x2="51.65" y2="335.54" style="fill:none;stroke:#263238;stroke-miterlimit:10;stroke-width:0.5px"></line><line x1="37.63" y1="309.54" x2="42.17" y2="302.13" style="fill:none;stroke:#263238;stroke-miterlimit:10;stroke-width:2px"></line><path d="M40.78,304.35a6.78,6.78,0,0,1,1.28-5.45c1.22-1.65,8.42-6.64,9.76-4C53.27,297.73,46.44,305.38,40.78,304.35Z" style="fill:#EEBBC3;stroke:#263238;stroke-miterlimit:10"></path><line x1="40.78" y1="304.35" x2="47.7" y2="297.74" style="fill:none;stroke:#263238;stroke-miterlimit:10;stroke-width:0.5px"></line><line x1="35.89" y1="292.93" x2="40.44" y2="285.52" style="fill:none;stroke:#263238;stroke-miterlimit:10;stroke-width:2px"></line><path d="M39.05,287.74a6.78,6.78,0,0,1,1.28-5.45c1.22-1.66,8.42-6.65,9.75-4C51.54,281.12,44.71,288.77,39.05,287.74Z" style="fill:#EEBBC3;stroke:#263238;stroke-miterlimit:10"></path><line x1="39.05" y1="287.74" x2="45.97" y2="281.13" style="fill:none;stroke:#263238;stroke-miterlimit:10;stroke-width:0.5px"></line><line x1="33.35" y1="268.57" x2="37.89" y2="261.16" style="fill:none;stroke:#263238;stroke-miterlimit:10;stroke-width:2px"></line><path d="M36.51,263.39a6.74,6.74,0,0,1,1.28-5.45c1.22-1.66,8.41-6.65,9.75-4C49,256.77,42.16,264.42,36.51,263.39Z" style="fill:#EEBBC3;stroke:#263238;stroke-miterlimit:10"></path><line x1="36.51" y1="263.39" x2="43.43" y2="256.77" style="fill:none;stroke:#263238;stroke-miterlimit:10;stroke-width:0.5px"></line><path d="M31.41,253a6.74,6.74,0,0,1,1.28-5.45c1.22-1.66,8.41-6.65,9.75-4C43.89,246.38,37.06,254,31.41,253Z" style="fill:#EEBBC3;stroke:#263238;stroke-miterlimit:10"></path><line x1="31.41" y1="253" x2="38.33" y2="246.39" style="fill:none;stroke:#263238;stroke-miterlimit:10;stroke-width:0.5px"></line><path d="M31.81,253.29a6.8,6.8,0,0,1-5.29-1.85c-1.52-1.38-5.73-9.06-3-10.12C26.53,240.18,33.42,247.77,31.81,253.29Z" style="fill:#EEBBC3;stroke:#263238;stroke-miterlimit:10"></path><line x1="31.81" y1="253.29" x2="25.96" y2="245.71" style="fill:none;stroke:#263238;stroke-miterlimit:10;stroke-width:0.5px"></line><line x1="66.29" y1="271.1" x2="53.18" y2="397.41" style="fill:none;stroke:#263238;stroke-miterlimit:10;stroke-width:2px"></line><line x1="56.08" y1="373.32" x2="51.53" y2="365.92" style="fill:none;stroke:#263238;stroke-miterlimit:10;stroke-width:2px"></line><path d="M52.91,368.14a6.74,6.74,0,0,0-1.28-5.45c-1.22-1.66-8.42-6.64-9.75-4C40.42,361.53,47.26,369.17,52.91,368.14Z" style="fill:#EEBBC3;stroke:#263238;stroke-miterlimit:10"></path><line x1="52.91" y1="368.14" x2="46.38" y2="361.87" style="fill:none;stroke:#263238;stroke-miterlimit:10;stroke-width:0.5px"></line><line x1="59.71" y1="338.27" x2="55.16" y2="330.86" style="fill:none;stroke:#263238;stroke-miterlimit:10;stroke-width:2px"></line><path d="M56.55,333.08a6.76,6.76,0,0,0-1.28-5.44c-1.22-1.66-8.42-6.65-9.76-4C44.06,326.47,50.9,334.12,56.55,333.08Z" style="fill:#EEBBC3;stroke:#263238;stroke-miterlimit:10"></path><line x1="56.55" y1="333.08" x2="50.02" y2="326.82" style="fill:none;stroke:#263238;stroke-miterlimit:10;stroke-width:0.5px"></line><line x1="58.22" y1="352.63" x2="53.67" y2="345.23" style="fill:none;stroke:#263238;stroke-miterlimit:10;stroke-width:2px"></line><path d="M55.06,347.45A6.78,6.78,0,0,0,53.78,342c-1.22-1.66-8.42-6.64-9.76-4C42.57,340.84,49.41,348.48,55.06,347.45Z" style="fill:#EEBBC3;stroke:#263238;stroke-miterlimit:10"></path><line x1="55.06" y1="347.45" x2="48.53" y2="341.18" style="fill:none;stroke:#263238;stroke-miterlimit:10;stroke-width:0.5px"></line><line x1="62.13" y1="314.93" x2="57.59" y2="307.52" style="fill:none;stroke:#263238;stroke-miterlimit:10;stroke-width:2px"></line><path d="M59,309.75a6.74,6.74,0,0,0-1.28-5.45c-1.22-1.66-8.42-6.64-9.75-4C46.48,303.14,53.32,310.78,59,309.75Z" style="fill:#EEBBC3;stroke:#263238;stroke-miterlimit:10"></path><line x1="58.97" y1="309.75" x2="52.44" y2="303.48" style="fill:none;stroke:#263238;stroke-miterlimit:10;stroke-width:0.5px"></line><line x1="64.57" y1="291.49" x2="60.02" y2="284.09" style="fill:none;stroke:#263238;stroke-miterlimit:10;stroke-width:2px"></line><path d="M61.41,286.31a6.77,6.77,0,0,0-1.29-5.45c-1.22-1.66-8.42-6.64-9.75-4C48.92,279.7,55.75,287.34,61.41,286.31Z" style="fill:#EEBBC3;stroke:#263238;stroke-miterlimit:10"></path><line x1="61.41" y1="286.31" x2="54.87" y2="280.04" style="fill:none;stroke:#263238;stroke-miterlimit:10;stroke-width:0.5px"></line><line x1="56.84" y1="364.8" x2="62.81" y2="358.48" style="fill:none;stroke:#263238;stroke-miterlimit:10;stroke-width:2px"></line><path d="M61,360.38a6.76,6.76,0,0,1,2.38-5.07c1.53-1.38,9.6-4.78,10.37-1.93C74.58,356.47,66.32,362.55,61,360.38Z" style="fill:#EEBBC3;stroke:#263238;stroke-miterlimit:10"></path><line x1="61" y1="360.38" x2="69.13" y2="355.33" style="fill:none;stroke:#263238;stroke-miterlimit:10;stroke-width:0.5px"></line><line x1="60.77" y1="326.99" x2="66.74" y2="320.68" style="fill:none;stroke:#263238;stroke-miterlimit:10;stroke-width:2px"></line><path d="M64.92,322.57a6.77,6.77,0,0,1,2.38-5.07c1.53-1.37,9.6-4.77,10.37-1.93C78.51,318.66,70.25,324.74,64.92,322.57Z" style="fill:#EEBBC3;stroke:#263238;stroke-miterlimit:10"></path><line x1="64.92" y1="322.57" x2="73.06" y2="317.52" style="fill:none;stroke:#263238;stroke-miterlimit:10;stroke-width:0.5px"></line><line x1="62.49" y1="310.38" x2="68.46" y2="304.07" style="fill:none;stroke:#263238;stroke-miterlimit:10;stroke-width:2px"></line><path d="M66.65,306A6.74,6.74,0,0,1,69,300.89c1.54-1.37,9.61-4.77,10.37-1.93C80.23,302.05,72,308.13,66.65,306Z" style="fill:#EEBBC3;stroke:#263238;stroke-miterlimit:10"></path><line x1="66.65" y1="305.96" x2="74.78" y2="300.91" style="fill:none;stroke:#263238;stroke-miterlimit:10;stroke-width:0.5px"></line><line x1="65.02" y1="286.03" x2="70.99" y2="279.71" style="fill:none;stroke:#263238;stroke-miterlimit:10;stroke-width:2px"></line><path d="M69.17,281.6a6.77,6.77,0,0,1,2.38-5.07c1.53-1.37,9.6-4.77,10.37-1.93C82.76,277.7,74.5,283.77,69.17,281.6Z" style="fill:#EEBBC3;stroke:#263238;stroke-miterlimit:10"></path><line x1="69.17" y1="281.6" x2="77.31" y2="276.56" style="fill:none;stroke:#263238;stroke-miterlimit:10;stroke-width:0.5px"></line><path d="M66.32,270.39a6.77,6.77,0,0,1,2.38-5.07c1.53-1.37,9.6-4.77,10.37-1.93C79.9,266.48,71.64,272.56,66.32,270.39Z" style="fill:#EEBBC3;stroke:#263238;stroke-miterlimit:10"></path><line x1="66.32" y1="270.39" x2="74.45" y2="265.34" style="fill:none;stroke:#263238;stroke-miterlimit:10;stroke-width:0.5px"></line><path d="M66.65,270.75a6.76,6.76,0,0,1-4.79-2.89c-1.2-1.67-3.74-10.05-.83-10.52C64.19,256.83,69.37,265.69,66.65,270.75Z" style="fill:#EEBBC3;stroke:#263238;stroke-miterlimit:10"></path><line x1="66.65" y1="270.75" x2="62.49" y2="262.13" style="fill:none;stroke:#263238;stroke-miterlimit:10;stroke-width:0.5px"></line><line x1="51.26" y1="219.66" x2="51.26" y2="379.4" style="fill:none;stroke:#263238;stroke-miterlimit:10;stroke-width:2px"></line><line x1="51.39" y1="355.38" x2="46.1" y2="348.48" style="fill:none;stroke:#263238;stroke-miterlimit:10;stroke-width:2px"></line><path d="M47.71,350.55a6.77,6.77,0,0,0-1.84-5.29c-1.38-1.52-9.06-5.74-10.11-3C34.61,345.26,42.19,352.16,47.71,350.55Z" style="fill:#EEBBC3;stroke:#263238;stroke-miterlimit:10"></path><line x1="47.71" y1="350.55" x2="40.57" y2="344.99" style="fill:none;stroke:#263238;stroke-miterlimit:10;stroke-width:0.5px"></line><line x1="51.39" y1="325.36" x2="46.1" y2="318.46" style="fill:none;stroke:#263238;stroke-miterlimit:10;stroke-width:2px"></line><path d="M47.71,320.53a6.77,6.77,0,0,0-1.84-5.29c-1.38-1.52-9.06-5.73-10.11-3C34.61,315.24,42.19,322.14,47.71,320.53Z" style="fill:#EEBBC3;stroke:#263238;stroke-miterlimit:10"></path><line x1="47.71" y1="320.53" x2="40.57" y2="314.97" style="fill:none;stroke:#263238;stroke-miterlimit:10;stroke-width:0.5px"></line><line x1="51.39" y1="290.12" x2="46.1" y2="283.22" style="fill:none;stroke:#263238;stroke-miterlimit:10;stroke-width:2px"></line><path d="M47.71,285.29A6.77,6.77,0,0,0,45.87,280c-1.38-1.52-9.06-5.74-10.11-3C34.61,280,42.19,286.9,47.71,285.29Z" style="fill:#EEBBC3;stroke:#263238;stroke-miterlimit:10"></path><line x1="47.71" y1="285.29" x2="40.57" y2="279.73" style="fill:none;stroke:#263238;stroke-miterlimit:10;stroke-width:0.5px"></line><line x1="51.39" y1="266.66" x2="46.1" y2="259.76" style="fill:none;stroke:#263238;stroke-miterlimit:10;stroke-width:2px"></line><path d="M47.71,261.83a6.77,6.77,0,0,0-1.84-5.29c-1.38-1.52-9.06-5.74-10.11-3C34.61,256.54,42.19,263.44,47.71,261.83Z" style="fill:#EEBBC3;stroke:#263238;stroke-miterlimit:10"></path><line x1="47.71" y1="261.83" x2="40.57" y2="256.27" style="fill:none;stroke:#263238;stroke-miterlimit:10;stroke-width:0.5px"></line><line x1="51.39" y1="243.09" x2="46.1" y2="236.19" style="fill:none;stroke:#263238;stroke-miterlimit:10;stroke-width:2px"></line><path d="M47.71,238.26A6.74,6.74,0,0,0,45.87,233c-1.38-1.53-9.06-5.74-10.11-3C34.61,233,42.19,239.87,47.71,238.26Z" style="fill:#EEBBC3;stroke:#263238;stroke-miterlimit:10"></path><line x1="47.71" y1="238.26" x2="40.57" y2="232.7" style="fill:none;stroke:#263238;stroke-miterlimit:10;stroke-width:0.5px"></line><line x1="51.28" y1="364.55" x2="56.56" y2="357.65" style="fill:none;stroke:#263238;stroke-miterlimit:10;stroke-width:2px"></line><path d="M55,359.72a6.77,6.77,0,0,1,1.84-5.29c1.39-1.52,9.06-5.74,10.12-3C68.06,354.43,60.47,361.33,55,359.72Z" style="fill:#EEBBC3;stroke:#263238;stroke-miterlimit:10"></path><line x1="54.95" y1="359.72" x2="62.52" y2="353.86" style="fill:none;stroke:#263238;stroke-miterlimit:10;stroke-width:0.5px"></line><line x1="51.28" y1="316.8" x2="56.56" y2="309.91" style="fill:none;stroke:#263238;stroke-miterlimit:10;stroke-width:2px"></line><path d="M55,312a6.75,6.75,0,0,1,1.84-5.28c1.39-1.53,9.06-5.74,10.12-3C68.06,306.69,60.47,313.58,55,312Z" style="fill:#EEBBC3;stroke:#263238;stroke-miterlimit:10"></path><line x1="54.95" y1="311.97" x2="62.52" y2="306.11" style="fill:none;stroke:#263238;stroke-miterlimit:10;stroke-width:0.5px"></line><line x1="51.28" y1="293.24" x2="56.56" y2="286.34" style="fill:none;stroke:#263238;stroke-miterlimit:10;stroke-width:2px"></line><path d="M55,288.41a6.77,6.77,0,0,1,1.84-5.29c1.39-1.52,9.06-5.73,10.12-3C68.06,283.12,60.47,290,55,288.41Z" style="fill:#EEBBC3;stroke:#263238;stroke-miterlimit:10"></path><line x1="54.95" y1="288.41" x2="62.52" y2="282.55" style="fill:none;stroke:#263238;stroke-miterlimit:10;stroke-width:0.5px"></line><line x1="51.28" y1="262.09" x2="56.56" y2="255.2" style="fill:none;stroke:#263238;stroke-miterlimit:10;stroke-width:2px"></line><path d="M55,257.27A6.77,6.77,0,0,1,56.79,252c1.39-1.52,9.06-5.74,10.12-3C68.06,252,60.47,258.88,55,257.27Z" style="fill:#EEBBC3;stroke:#263238;stroke-miterlimit:10"></path><line x1="54.95" y1="257.27" x2="62.52" y2="251.41" style="fill:none;stroke:#263238;stroke-miterlimit:10;stroke-width:0.5px"></line><line x1="51.28" y1="237.61" x2="56.56" y2="230.71" style="fill:none;stroke:#263238;stroke-miterlimit:10;stroke-width:2px"></line><path d="M55,232.78a6.77,6.77,0,0,1,1.84-5.29c1.39-1.52,9.06-5.74,10.12-3C68.06,227.49,60.47,234.39,55,232.78Z" style="fill:#EEBBC3;stroke:#263238;stroke-miterlimit:10"></path><line x1="54.95" y1="232.78" x2="62.52" y2="226.92" style="fill:none;stroke:#263238;stroke-miterlimit:10;stroke-width:0.5px"></line><path d="M51,221.92a6.77,6.77,0,0,1,1.84-5.29c1.38-1.52,9.06-5.74,10.11-3C64.06,216.63,56.48,223.53,51,221.92Z" style="fill:#EEBBC3;stroke:#263238;stroke-miterlimit:10"></path><line x1="50.96" y1="221.92" x2="58.53" y2="216.06" style="fill:none;stroke:#263238;stroke-miterlimit:10;stroke-width:0.5px"></line><path d="M51.33,222.25a6.81,6.81,0,0,1-5.07-2.39c-1.37-1.53-4.75-9.61-1.91-10.37C47.44,208.66,53.51,216.93,51.33,222.25Z" style="fill:#EEBBC3;stroke:#263238;stroke-miterlimit:10"></path><line x1="51.33" y1="222.25" x2="46.29" y2="214.1" style="fill:none;stroke:#263238;stroke-miterlimit:10;stroke-width:0.5px"></line><polygon points="57.84 420.82 40.92 420.82 38.8 378.1 59.95 378.1 57.84 420.82" style="fill:#263238;stroke:#263238;stroke-miterlimit:10"></polygon></g><g id="freepik--washing-machine-2--inject-62"><rect x="270.92" y="122.15" width="164.82" height="298.68" style="fill:#fff;stroke:#263238;stroke-miterlimit:10"></rect><rect x="328.6" y="122.15" width="49.47" height="298.68" style="fill:#EEBBC3;stroke:#263238;stroke-miterlimit:10"></rect><rect x="270.92" y="145.36" width="164.82" height="199.2" style="fill:none;stroke:#263238;stroke-miterlimit:10"></rect><rect x="270.92" y="122.15" width="164.82" height="199.2" style="fill:none;stroke:#263238;stroke-miterlimit:10"></rect><rect x="406.32" y="194.65" width="29.42" height="16.2" style="fill:#fff;stroke:#263238;stroke-miterlimit:10"></rect><rect x="406.32" y="265.43" width="29.42" height="16.2" style="fill:#fff;stroke:#263238;stroke-miterlimit:10"></rect><circle cx="353.33" cy="238.95" r="73.9" style="fill:#fff;stroke:#263238;stroke-miterlimit:10"></circle><circle cx="353.33" cy="238.95" r="71.47" transform="translate(-65.48 319.83) rotate(-45)" style="fill:#EEBBC3;stroke:#263238;stroke-miterlimit:10"></circle><path d="M412.74,239a59.45,59.45,0,1,1-17.91-42.49h0A59.22,59.22,0,0,1,412.74,239Z" style="fill:#263238;stroke:#263238;stroke-miterlimit:10"></path><path d="M412.74,239a59.42,59.42,0,0,1-91.46,50l0-.2c-5.13-2.56-13.69-14.1-18.39-23.08s2.14-36.35,12-46.18,10.69-14.54,16.67-12,.87,15.83.87,15.83A125,125,0,0,0,341,209.68c3-6,12.39-8.55,18.81-12.4s13.68-6.41,18.39-6.41c4,0,13.71,4.26,16.66,5.59h0A59.22,59.22,0,0,1,412.74,239Z" style="fill:#fff;stroke:#263238;stroke-miterlimit:10"></path><path d="M327.26,239.58c5-15.6,3.44-9.8,3.44-9.8" style="fill:none;stroke:#263238;stroke-miterlimit:10"></path><path d="M316.17,252s7.26-39.33,9-28.64-11.54,39.76-9.83,44.46,5-6.37,10.75-24.49" style="fill:none;stroke:#263238;stroke-miterlimit:10"></path><path d="M406,260.11a38.29,38.29,0,0,0,2.12-9" style="fill:none;stroke:#263238;stroke-miterlimit:10"></path><path d="M359.78,288.36c13.56,9.39,35.32-5.26,44.35-23.93" style="fill:none;stroke:#263238;stroke-miterlimit:10"></path><path d="M370.89,248.09a38.11,38.11,0,0,0-13.68,4.78c-13.74,8.64-14.14,21.6-1.2,32.6" style="fill:none;stroke:#263238;stroke-miterlimit:10"></path><path d="M340.76,269.57c3.19-7.59,9.35-20.7,16.88-29.1,11.12-12.4,38.91-18,38.48-3.85-.26,8.56-9,9.25-19.2,10.57" style="fill:none;stroke:#263238;stroke-miterlimit:10"></path><path d="M338.4,275.53s.42-1.16,1.19-3.11" style="fill:none;stroke:#263238;stroke-miterlimit:10"></path><path d="M329.29,262c-5.73,10.07-10.37,15.2-17,15.2" style="fill:none;stroke:#263238;stroke-miterlimit:10"></path><path d="M347.38,227.25q-1.83,3.3-3.85,7.23c-4.59,8.92-8.29,16.47-11.55,22.63" style="fill:none;stroke:#263238;stroke-miterlimit:10"></path><path d="M397.57,219.16c-3-4.51-10.32-13.64-20.26-14.61-11.42-1.1-17.45,1-28.2,19.62" style="fill:none;stroke:#263238;stroke-miterlimit:10"></path><path d="M399.12,221.66s-.3-.56-.88-1.47" style="fill:none;stroke:#263238;stroke-miterlimit:10"></path><path d="M390.56,256.72s-3.56,1.85-8,4.36c-6.21,3.51-14.12,8.29-16.37,11-3.85,4.7,3.85,9.41,7.27,5.56s9.84-11.12,9.84-11.12" style="fill:none;stroke:#263238;stroke-miterlimit:10"></path><path d="M295.81,261.38a7.51,7.51,0,0,1-7.26-5.62,67.32,67.32,0,0,1,1.19-37.68A7.5,7.5,0,0,1,304,222.76a52.1,52.1,0,0,0-.92,29.24,7.51,7.51,0,0,1-5.39,9.14A7.63,7.63,0,0,1,295.81,261.38Z" style="fill:#bdbdbd;stroke:#263238;stroke-miterlimit:10"></path><circle cx="368.17" cy="152.47" r="4.52" style="fill:#263238;stroke:#263238;stroke-miterlimit:10"></circle><circle cx="422.43" cy="133.88" r="4.52" style="fill:#EEBBC3;stroke:#263238;stroke-miterlimit:10"></circle><rect x="333.84" y="148.51" width="26.15" height="8.29" style="fill:#fff;stroke:#263238;stroke-miterlimit:10"></rect><line x1="411.03" y1="122.32" x2="411.03" y2="145.53" style="fill:none;stroke:#263238;stroke-miterlimit:10"></line></g><g id="freepik--washing-machine-1--inject-62"><rect x="92.34" y="122.15" width="164.82" height="298.68" style="fill:#fff;stroke:#263238;stroke-miterlimit:10"></rect><rect x="150.01" y="122.15" width="49.47" height="298.68" style="fill:#EEBBC3;stroke:#263238;stroke-miterlimit:10"></rect><rect x="92.34" y="145.36" width="164.82" height="199.2" style="fill:none;stroke:#263238;stroke-miterlimit:10"></rect><rect x="92.34" y="122.15" width="164.82" height="199.2" style="fill:none;stroke:#263238;stroke-miterlimit:10"></rect><rect x="227.73" y="194.65" width="29.42" height="16.2" style="fill:#fff;stroke:#263238;stroke-miterlimit:10"></rect><rect x="227.73" y="265.43" width="29.42" height="16.2" style="fill:#fff;stroke:#263238;stroke-miterlimit:10"></rect><circle cx="174.75" cy="238.95" r="73.9" style="fill:#fff;stroke:#263238;stroke-miterlimit:10"></circle><circle cx="174.75" cy="238.95" r="71.47" transform="translate(-50.82 47.24) rotate(-13.46)" style="fill:#EEBBC3;stroke:#263238;stroke-miterlimit:10"></circle><path d="M234.15,239a59.45,59.45,0,1,1-17.91-42.49h0A59.18,59.18,0,0,1,234.15,239Z" style="fill:#263238;stroke:#263238;stroke-miterlimit:10"></path><path d="M117.22,261.38a7.5,7.5,0,0,1-7.25-5.62,67.32,67.32,0,0,1,1.19-37.68,7.5,7.5,0,0,1,14.26,4.68A51.75,51.75,0,0,0,122.84,239,52.39,52.39,0,0,0,124.49,252a7.5,7.5,0,0,1-5.38,9.14A7.65,7.65,0,0,1,117.22,261.38Z" style="fill:#bdbdbd;stroke:#263238;stroke-miterlimit:10"></path><line x1="150.9" y1="262.4" x2="143.44" y2="269.87" style="fill:none;stroke:#fff;stroke-miterlimit:10"></line><line x1="211.53" y1="201.78" x2="154.79" y2="258.52" style="fill:none;stroke:#fff;stroke-miterlimit:10"></line><line x1="159.56" y1="244.18" x2="139.56" y2="264.19" style="fill:none;stroke:#fff;stroke-miterlimit:10"></line><line x1="222.28" y1="229.25" x2="211.83" y2="239.7" style="fill:none;stroke:#fff;stroke-miterlimit:10"></line><circle cx="189.59" cy="152.47" r="4.52" style="fill:#263238;stroke:#263238;stroke-miterlimit:10"></circle><path d="M248.37,133.88a4.52,4.52,0,1,0-4.52,4.52A4.52,4.52,0,0,0,248.37,133.88Z" style="fill:#EEBBC3;stroke:#263238;stroke-miterlimit:10"></path><rect x="155.25" y="148.51" width="26.15" height="8.29" style="fill:#fff;stroke:#263238;stroke-miterlimit:10"></rect><line x1="232.44" y1="122.32" x2="232.44" y2="145.53" style="fill:none;stroke:#263238;stroke-miterlimit:10"></line></g><g id="freepik--ironing-board--inject-62"><rect x="508.62" y="158.76" width="3.75" height="40.97" transform="translate(-26.43 112.54) rotate(-12.26)" style="fill:#fff;stroke:#263238;stroke-miterlimit:10"></rect><rect x="501.89" y="150.15" width="6.56" height="9.18" transform="translate(-21.34 110.85) rotate(-12.27)" style="fill:#263238;stroke:#263238;stroke-miterlimit:10"></rect><rect x="528.58" y="177.37" width="40.97" height="3.75" transform="translate(257.27 677.7) rotate(-77.74)" style="fill:#fff;stroke:#263238;stroke-miterlimit:10"></rect><rect x="549.8" y="151.46" width="9.18" height="6.56" transform="translate(285.41 663.61) rotate(-77.73)" style="fill:#263238;stroke:#263238;stroke-miterlimit:10"></rect><rect x="490.01" y="389.26" width="40.97" height="3.75" transform="translate(19.84 806.9) rotate(-77.74)" style="fill:#fff;stroke:#263238;stroke-miterlimit:10"></rect><rect x="500.58" y="412.36" width="9.18" height="6.56" transform="translate(-8.3 820.98) rotate(-77.73)" style="fill:#263238;stroke:#263238;stroke-miterlimit:10"></rect><rect x="547.19" y="370.66" width="3.75" height="40.97" transform="translate(-70.56 125.56) rotate(-12.26)" style="fill:#fff;stroke:#263238;stroke-miterlimit:10"></rect><rect x="551.11" y="411.05" width="6.56" height="9.18" transform="translate(-75.64 127.26) rotate(-12.27)" style="fill:#263238;stroke:#263238;stroke-miterlimit:10"></rect><path d="M506.64,365.66H553.1a0,0,0,0,1,0,0v33a7.77,7.77,0,0,1-7.77,7.77H514.42a7.77,7.77,0,0,1-7.77-7.77v-33A0,0,0,0,1,506.64,365.66Z" style="fill:none;stroke:#263238;stroke-miterlimit:10;stroke-width:2px"></path><line x1="515.79" y1="365.6" x2="515.79" y2="406.02" style="fill:none;stroke:#263238;stroke-miterlimit:10;stroke-width:2px"></line><line x1="525.27" y1="365.6" x2="525.27" y2="406.02" style="fill:none;stroke:#263238;stroke-miterlimit:10;stroke-width:2px"></line><line x1="534.75" y1="365.6" x2="534.75" y2="406.02" style="fill:none;stroke:#263238;stroke-miterlimit:10;stroke-width:2px"></line><line x1="544.22" y1="365.6" x2="544.22" y2="406.02" style="fill:none;stroke:#263238;stroke-miterlimit:10;stroke-width:2px"></line><path d="M551.36,379.1H508.17a10.36,10.36,0,0,1-10.37-10.36V215.26a81.41,81.41,0,0,1,15.77-48.14l11.17-15.25a5.47,5.47,0,0,1,8.75-.09l11.43,14.91a81.4,81.4,0,0,1,16.8,49.54V368.74A10.36,10.36,0,0,1,551.36,379.1Z" style="fill:#EEBBC3;stroke:#263238;stroke-miterlimit:10"></path></g><g id="freepik--Clothes--inject-62"><path d="M717.76,420.83V182.7a9.4,9.4,0,0,0-9.4-9.4H554.67a9.4,9.4,0,0,0-9.4,9.4V420.45" style="fill:none;stroke:#263238;stroke-linejoin:round;stroke-width:4px"></path><path d="M641.71,218.16l4.53-3.13A42.83,42.83,0,0,0,661,196.54l3.77-8.81h6l3.78,8.81A42.83,42.83,0,0,0,689.31,215l4.53,3.13a10.18,10.18,0,0,1,4.09,8.37H637.62A10.15,10.15,0,0,1,641.71,218.16Zm24.38,4.67H692c0-2.78-4.43-5.36-6.19-6.77l-3.14-2.54a34.19,34.19,0,0,1-10.21-15l-2.62-7.14H665.7l-2.62,7.14a34.2,34.2,0,0,1-10.22,15l-3.14,2.54c-1.75,1.41-6.1,4-6.1,6.77Z" style="fill:#fff;stroke:#263238;stroke-linecap:round;stroke-linejoin:round"></path><path d="M667.81,187.58v-6.47s-3.7-2.77-3.7-6.78,3.08-5.54,6.47-4.31" style="fill:none;stroke:#263238;stroke-linecap:round;stroke-linejoin:round"></path><path d="M685,208.4s-6.87,7.92-15.51,8.06c-9.17.14-19.94-7.88-19.94-7.88a45.31,45.31,0,0,1-8,5.51c-4.8,2.62-8,6.45-10.47,13.09-2.81,7.4-9,27.53-9,27.53l17.84.87-2.45,40.47h59.34l-4-41.23h17.32s-5.74-27.21-8.36-32.44S685,208.4,685,208.4Z" style="fill:#fff;stroke:#263238;stroke-linecap:round;stroke-linejoin:round"></path><line x1="692.85" y1="254.82" x2="691.94" y2="233.2" style="fill:none;stroke:#263238;stroke-linecap:round;stroke-linejoin:round"></line><line x1="639.98" y1="255.58" x2="641.38" y2="234.58" style="fill:none;stroke:#263238;stroke-linecap:round;stroke-linejoin:round"></line><path d="M710.51,221.3c-2.44-3-12.9-11.58-21.62-16.05a67.22,67.22,0,0,1-13.59-9l-8.37-1.12-8.37,1.12a67.14,67.14,0,0,1-13.6,9c-8.71,4.47-19.17,13.06-21.61,16.05l-2.44,3V356.06h92V224.28Z" style="fill:none;stroke:#8a8a8a;stroke-linecap:round;stroke-linejoin:round"></path><path d="M704.8,221s-9.95,58-28.74,85.4" style="fill:none;stroke:#8a8a8a;stroke-linecap:round;stroke-linejoin:round"></path><path d="M680.21,280.41s-9.4,24.88-19.35,39.8" style="fill:none;stroke:#8a8a8a;stroke-linecap:round;stroke-linejoin:round"></path><path d="M666.11,205s-7.88,14.61-16.31,22.11" style="fill:none;stroke:#8a8a8a;stroke-linecap:round;stroke-linejoin:round"></path><path d="M608.32,218.16l4.53-3.13a42.74,42.74,0,0,0,14.75-18.49l3.78-8.81h6l3.78,8.81A42.76,42.76,0,0,0,655.92,215l4.53,3.13a10.18,10.18,0,0,1,4.09,8.37H604.23A10.15,10.15,0,0,1,608.32,218.16Zm24.38,4.67h25.92c0-2.78-4.44-5.36-6.19-6.77l-3.14-2.54a34.28,34.28,0,0,1-10.22-15l-2.61-7.14h-4.15l-2.62,7.14a34.2,34.2,0,0,1-10.22,15l-3.14,2.54c-1.75,1.41-6.1,4-6.1,6.77Z" style="fill:#fff;stroke:#263238;stroke-linecap:round;stroke-linejoin:round"></path><path d="M634.42,187.58v-6.47s-3.7-2.77-3.7-6.78,3.08-5.54,6.47-4.31" style="fill:none;stroke:#263238;stroke-linecap:round;stroke-linejoin:round"></path><path d="M651.64,208.4s-6.87,7.92-15.5,8.06c-9.17.14-19.94-7.88-19.94-7.88a45.31,45.31,0,0,1-8,5.51c-4.8,2.62-8,6.45-10.47,13.09-2.81,7.4-9,27.53-9,27.53l17.84.87-2.45,40.47h59.34l-4-41.23h17.32s-5.74-27.21-8.36-32.44S651.64,208.4,651.64,208.4Z" style="fill:#fff;stroke:#263238;stroke-linecap:round;stroke-linejoin:round"></path><line x1="659.46" y1="254.82" x2="658.55" y2="233.2" style="fill:none;stroke:#263238;stroke-linecap:round;stroke-linejoin:round"></line><line x1="606.59" y1="255.58" x2="607.98" y2="234.58" style="fill:none;stroke:#263238;stroke-linecap:round;stroke-linejoin:round"></line><path d="M677.12,221.3c-2.44-3-12.9-11.58-21.62-16.05a67.22,67.22,0,0,1-13.59-9l-8.37-1.12-8.37,1.12a67.14,67.14,0,0,1-13.6,9c-8.71,4.47-19.17,13.06-21.61,16.05l-2.44,3V356.06h92V224.28Z" style="fill:none;stroke:#8a8a8a;stroke-linecap:round;stroke-linejoin:round"></path><path d="M671.41,221s-9.95,58-28.74,85.4" style="fill:none;stroke:#8a8a8a;stroke-linecap:round;stroke-linejoin:round"></path><path d="M646.81,280.41s-9.39,24.88-19.34,39.8" style="fill:none;stroke:#8a8a8a;stroke-linecap:round;stroke-linejoin:round"></path><path d="M632.72,205s-7.88,14.61-16.31,22.11" style="fill:none;stroke:#8a8a8a;stroke-linecap:round;stroke-linejoin:round"></path><path d="M575.37,218.16,579.9,215a42.83,42.83,0,0,0,14.76-18.49l3.78-8.81h6l3.77,8.81A42.83,42.83,0,0,0,623,215l4.53,3.13a10.15,10.15,0,0,1,4.09,8.37H571.28A10.18,10.18,0,0,1,575.37,218.16Zm24.38,4.67h25.92c0-2.78-4.43-5.36-6.19-6.77l-3.13-2.54a34.2,34.2,0,0,1-10.22-15l-2.62-7.14h-4.15l-2.62,7.14a34.19,34.19,0,0,1-10.21,15l-3.14,2.54c-1.76,1.41-6.1,4-6.1,6.77Z" style="fill:#fff;stroke:#263238;stroke-linecap:round;stroke-linejoin:round"></path><path d="M601.47,187.58v-6.47s-3.7-2.77-3.7-6.78,3.08-5.54,6.47-4.31" style="fill:none;stroke:#263238;stroke-linecap:round;stroke-linejoin:round"></path><path d="M618.7,208.4s-6.87,7.92-15.51,8.06c-9.16.14-19.94-7.88-19.94-7.88a45.31,45.31,0,0,1-8,5.51c-4.79,2.62-7.95,6.45-10.47,13.09-2.8,7.4-9,27.53-9,27.53l17.84.87-2.44,40.47h59.33l-4-41.23h17.32s-5.74-27.21-8.35-32.44S618.7,208.4,618.7,208.4Z" style="fill:#fff;stroke:#263238;stroke-linecap:round;stroke-linejoin:round"></path><line x1="626.51" y1="254.82" x2="625.61" y2="233.2" style="fill:none;stroke:#263238;stroke-linecap:round;stroke-linejoin:round"></line><line x1="573.64" y1="255.58" x2="575.04" y2="234.58" style="fill:none;stroke:#263238;stroke-linecap:round;stroke-linejoin:round"></line><path d="M644.17,221.3c-2.44-3-12.9-11.58-21.61-16.05a67.14,67.14,0,0,1-13.6-9l-8.37-1.12-8.37,1.12a67.22,67.22,0,0,1-13.59,9c-8.72,4.47-19.18,13.06-21.62,16.05l-2.44,3V356.06h92V224.28Z" style="fill:none;stroke:#8a8a8a;stroke-linecap:round;stroke-linejoin:round"></path><path d="M638.47,221s-10,58-28.75,85.4" style="fill:none;stroke:#8a8a8a;stroke-linecap:round;stroke-linejoin:round"></path><path d="M613.87,280.41s-9.4,24.88-19.35,39.8" style="fill:none;stroke:#8a8a8a;stroke-linecap:round;stroke-linejoin:round"></path><path d="M599.77,205s-7.87,14.61-16.3,22.11" style="fill:none;stroke:#8a8a8a;stroke-linecap:round;stroke-linejoin:round"></path></g><g id="freepik--Wheelbarrow--inject-62"><rect x="500.85" y="286.01" width="4.98" height="117.9" style="fill:#c2c2c2;stroke:#263238;stroke-miterlimit:10"></rect><rect x="489.55" y="286.01" width="15.97" height="4.2" style="fill:#c2c2c2;stroke:#263238;stroke-miterlimit:10"></rect><rect x="497.01" y="403.15" width="12.67" height="4.31" style="fill:#c2c2c2;stroke:#263238;stroke-miterlimit:10"></rect><circle cx="503.34" cy="414.05" r="6.77" style="fill:#263238;stroke:#263238;stroke-miterlimit:10"></circle><path d="M506.24,414.05a2.9,2.9,0,1,0-2.9,2.9A2.9,2.9,0,0,0,506.24,414.05Z" style="fill:#fff;stroke:#263238;stroke-miterlimit:10"></path><path d="M664.61,254.62a2.52,2.52,0,0,0-3.75-.43l-28.29,25.68c-2.08,1.94-4.22,4-5.36,6.57-1.62,3.7-.89,7.8-.87,11.7,0,4.42,0,8.84,0,13.26v92.51h5V294.56c0-2.46-.6-5.26.85-7.21,4.2-5.68,10.59-10,15.71-14.84.42-.4,3.5-3.27,16.33-14.56a2.51,2.51,0,0,0,.4-3.33Z" style="fill:#c2c2c2;stroke:#263238;stroke-miterlimit:10"></path><path d="M628.46,306.86l-9.23-12.3s-6.84-2-13-4.36-7.08-7.54-11.32-9.9-11.32-2.83-13.68-1.89a18.3,18.3,0,0,1-6.13,1.42c-1.41,0-7.54-1.42-10.85,0s-11.79,2.83-12.73,5.66-3.3,3.77-4.25,5.19-3.3,2.35-6.13,2.83-18.86,1.88-21.69,3.77a55.18,55.18,0,0,1-7.08,4.24l-2.83,1.42-10.37,7.55-3.77,9s-.48,8-1.42,9.9-.94,8.49-.94,8.49v56.6H628.46Z" style="fill:#fff;stroke:#263238;stroke-miterlimit:10"></path><path d="M563.34,300.11c.47,4.24-7.33,8.46-8.84,9.24s-11.44-9.71-9.08-11.13,7.07-4.24,8.49-2.36,1.41,5.19,1.41,5.19" style="fill:none;stroke:#263238;stroke-miterlimit:10"></path><path d="M558.15,286.43s2,4,3.51,7.92" style="fill:none;stroke:#263238;stroke-miterlimit:10"></path><path d="M585.55,290.33l4.67,5.06a23.28,23.28,0,0,0-3.3,6.61c-1.41,4.24-1.88,3.77-2.36,7.07s0,2.83-.47,8.49-3.3,14.15-3.3,14.15l-14.15,8s-28.77,1.41-30.18,1.41a87.8,87.8,0,0,0-11.32,0c-4.25.47-12.74,5.66-12.74,5.66s2.47,14.24-1.59,13.49-3.12,4.9-3.12,4.9" style="fill:none;stroke:#263238;stroke-miterlimit:10"></path><line x1="578.9" y1="283.13" x2="583.72" y2="288.35" style="fill:none;stroke:#263238;stroke-miterlimit:10"></line><path d="M610.5,297.28s-9.68,12.84-11.56,12.84-8.24,3.19-10.13,6.5a84.27,84.27,0,0,0-4.72,9.43,45.8,45.8,0,0,1-3.3,5.66" style="fill:none;stroke:#263238;stroke-miterlimit:10"></path><path d="M540.11,333.81c5.08.33,11.29-1.62,18-3,9-1.89,17.09-6.72,17.92-13.68s4.72-12.26,2.36-16-9.9-9-11.32-9S560,290.2,560,290.2" style="fill:none;stroke:#263238;stroke-miterlimit:10"></path><path d="M514.29,316.62s15.56,13.2,21.22,16a10.1,10.1,0,0,0,1.68.66" style="fill:none;stroke:#263238;stroke-miterlimit:10"></path><path d="M546.88,367.53a138.25,138.25,0,0,1,20.23,1c22.64,2.83,50.94,1.88,46.7,7.54s-4.72,5.66-6.61,5.66" style="fill:none;stroke:#263238;stroke-miterlimit:10"></path><path d="M590,364.6a77.12,77.12,0,0,1-11.1.59c-8,0-23.58-1.41-34.9-1.41s-31.12,2.36-24,4.24c4,1.07,11.29.18,21-.29" style="fill:none;stroke:#263238;stroke-miterlimit:10"></path><path d="M610.8,337.12c1.81,5.61,3.56,12.31,2.53,14.87-1.88,4.72-13.2,10.85-18.39,11.79" style="fill:none;stroke:#263238;stroke-miterlimit:10"></path><path d="M607.67,328.41s1.16,2.88,2.45,6.67" style="fill:none;stroke:#263238;stroke-miterlimit:10"></path><path d="M565.88,385.08c12.84-.5,20.58-.55,14.91.4-17,2.82-52.35,4.71-52.35,4.71" style="fill:none;stroke:#263238;stroke-miterlimit:10"></path><path d="M494.48,388.78s39.3-2.34,65.43-3.46" style="fill:none;stroke:#263238;stroke-miterlimit:10"></path><rect x="562.8" y="246.18" width="4.98" height="126.34" transform="translate(874.63 -255.94) rotate(90)" style="fill:#c2c2c2;stroke:#263238;stroke-miterlimit:10"></rect><rect x="562.8" y="333.57" width="4.98" height="126.34" transform="translate(962.02 -168.55) rotate(90)" style="fill:#fff;stroke:#263238;stroke-miterlimit:10"></rect><path d="M662.55,257.9H649.69v-4.2h12.86a2.1,2.1,0,0,1,2.1,2.1h0A2.1,2.1,0,0,1,662.55,257.9Z" style="fill:#c2c2c2;stroke:#263238;stroke-miterlimit:10"></path><rect x="622.52" y="403.15" width="12.67" height="4.31" style="fill:#c2c2c2;stroke:#263238;stroke-miterlimit:10"></rect><circle cx="628.67" cy="414.05" r="6.77" style="fill:#263238;stroke:#263238;stroke-miterlimit:10"></circle><path d="M631.57,414.05a2.9,2.9,0,1,0-2.9,2.9A2.9,2.9,0,0,0,631.57,414.05Z" style="fill:#fff;stroke:#263238;stroke-miterlimit:10"></path><path d="M627.54,325.59v-1.87h-28.6v-13.6h-1.87v13.6H576.91v-13.6H575v13.6H554.87v-13.6H553v13.6H532.84v-13.6H531v13.6H510.81v-13.6h-1.88v13.6H491.58v1.87h17.35v15.48H491.58v1.87h17.35v15.47H491.58v1.88h17.35v15.47H491.58v1.87h17.35v18.29h1.88V377.63H531v18.29h1.88V377.63H553v18.29h1.87V377.63H575v18.29h1.88V377.63h20.16v18.29h1.87V377.63h28.6v-1.87h-28.6V360.29h28.6v-1.88h-28.6V342.94h28.6v-1.87h-28.6V325.59Zm-52.51,0v15.48H554.87V325.59Zm-20.16,17.35H575v15.47H554.87ZM553,358.41H532.84V342.94H553Zm0-32.82v15.48H532.84V325.59Zm-42.19,0H531v15.48H510.81Zm0,17.35H531v15.47H510.81Zm0,32.82V360.29H531v15.47Zm22,0V360.29H553v15.47Zm22,0V360.29H575v15.47Zm42.2,0H576.91V360.29h20.16Zm0-17.35H576.91V342.94h20.16Zm0-17.34H576.91V325.59h20.16Z" style="fill:#c2c2c2;stroke:#263238;stroke-miterlimit:10"></path><rect x="552.01" y="246.18" width="4.98" height="126.34" transform="translate(863.85 -245.16) rotate(90)" style="fill:#c2c2c2;stroke:#263238;stroke-miterlimit:10"></rect><rect x="552.01" y="333.57" width="4.98" height="126.34" transform="translate(951.24 -157.77) rotate(90)" style="fill:#c2c2c2;stroke:#263238;stroke-miterlimit:10"></rect><rect x="487.91" y="286.01" width="4.98" height="117.9" style="fill:#c2c2c2;stroke:#263238;stroke-miterlimit:10"></rect><path d="M652.52,254.62a2.52,2.52,0,0,0-3.75-.43l-28.29,25.68c-2.08,1.94-4.22,4-5.36,6.57-1.62,3.7-.89,7.8-.87,11.7,0,4.42,0,8.84,0,13.26v92.51h5V294.56c0-2.46-.6-5.26.85-7.21,4.2-5.68,10.59-10,15.71-14.84.42-.4,3.5-3.27,16.33-14.56a2.52,2.52,0,0,0,.4-3.33Z" style="fill:#c2c2c2;stroke:#263238;stroke-miterlimit:10"></path><circle cx="649.77" cy="256.45" r="1.5" style="fill:#c2c2c2;stroke:#263238;stroke-miterlimit:10"></circle><rect x="484.07" y="403.15" width="12.67" height="4.31" style="fill:#c2c2c2;stroke:#263238;stroke-miterlimit:10"></rect><rect x="610.43" y="403.15" width="12.67" height="4.31" style="fill:#c2c2c2;stroke:#263238;stroke-miterlimit:10"></rect><circle cx="490.4" cy="414.05" r="6.77" style="fill:#263238;stroke:#263238;stroke-miterlimit:10"></circle><path d="M493.3,414.05a2.9,2.9,0,1,0-2.9,2.9A2.9,2.9,0,0,0,493.3,414.05Z" style="fill:#fff;stroke:#263238;stroke-miterlimit:10"></path><circle cx="616.58" cy="414.05" r="6.77" style="fill:#263238;stroke:#263238;stroke-miterlimit:10"></circle><path d="M619.48,414.05a2.9,2.9,0,1,0-2.9,2.9A2.9,2.9,0,0,0,619.48,414.05Z" style="fill:#fff;stroke:#263238;stroke-miterlimit:10"></path></g><g id="freepik--Character--inject-62"><path d="M408.65,195.69s-2.22-3.34-9.54-13.22S387.49,166.82,386.18,164s-3.57-8.87-5.53-12-2.73-2.95-4.43-4.87a9.9,9.9,0,0,0-6.74-3.3c-2.19,0-4.51.81-3.72,2.23s4,.35,4.91.6a18.05,18.05,0,0,1,4.41,3.32c.66.77.58,7.35.2,7.48s-6.47-1.62-8.41-1.47-3.73,1.71-2.82,2.21,3.75.36,6.73,1.5,6.1,3.82,7.91,4.45l1.81.63s9.9,25,12.92,30.87,11.73,13.84,13.28,13.83,4.5-2.36,4.5-2.36Z" style="fill:#fff;stroke:#263238;stroke-miterlimit:10"></path><path d="M443.16,186a16.72,16.72,0,0,0-5.4,2.11c-2.83,1.71-29.64,6.3-29.64,6.3l3.2,20.25,24-3.31,9.88-24.85S445.35,185.33,443.16,186Z" style="fill:#EEBBC3;stroke:#263238;stroke-miterlimit:10"></path><path d="M442.4,129.65s-5.6,9.43-5.6,12.38-.45,6.49-1.48,8-5,4-4.86,4.72.73,2.51,1.91,3.1l1.18.59s2.36,7.81,3.25,10,1.62,2.66,2.5,2.66,5.9-.74,5.9-.74a37,37,0,0,1,.74,8,19.2,19.2,0,0,1-.59,5l16.22-8s-1.48-4.71-1-8.11,3.4-4.42-2.5-19.16S444.17,125.81,442.4,129.65Z" style="fill:#fff;stroke:#263238;stroke-miterlimit:10"></path><path d="M438.55,149c-.21,1-.64,1.75-1,1.68s-.4-.93-.19-1.93.64-1.74,1-1.67S438.77,148,438.55,149Z" style="fill:#263238"></path><path d="M437.53,143.8s1.77-1.47,2.36,1" style="fill:none;stroke:#263238;stroke-linecap:round;stroke-linejoin:round"></path><path d="M435.76,160.9a5.45,5.45,0,0,0,4.72-2.65" style="fill:none;stroke:#263238;stroke-linecap:round;stroke-linejoin:round"></path><path d="M440.34,125.37a184.79,184.79,0,0,0,5,18.43c2.65,7.52,9.43,19,12.09,21.82s3.68,4.43,5,4.28,12.39-9.88,14.45-20.05-.59-17.55-7.81-21.82S439.75,119.33,440.34,125.37Z" style="fill:#263238;stroke:#263238;stroke-miterlimit:10"></path><path d="M462.45,169.9s-1,8.84,2.51,12.53,6,4.28,10.17,1.47,7.37-9.43,2.06-13.41S463.34,165.62,462.45,169.9Z" style="fill:#263238;stroke:#263238;stroke-miterlimit:10"></path><path d="M447,152.21s1.62-5,3.54-3.1,1.92,8,.29,10.47-2.5,0-2.5,0" style="fill:#fff;stroke:#263238;stroke-miterlimit:10"></path><path d="M434.61,320.84s-1.18,17.71,1.38,26.57,18.69,51,18.69,51,.4,7.47-.19,8.26-3.35,5.12-7.09,6.89-11.61,6.3-9.84,6.89,17.52-1.19,19.29-.4,9.64-2.36,11.61-3.15,0-5.7,0-5.7a247.64,247.64,0,0,1-5.9-24.8c-1.78-10.82-4.53-25.78-6.1-33.25a62.2,62.2,0,0,0-4.53-13.39l2-18.49Z" style="fill:#fff;stroke:#263238;stroke-miterlimit:10"></path><path d="M450,416.09l-2-2.84-.54.28c-3.74,1.77-11.61,6.3-9.84,6.89s17.52-1.19,19.29-.4,9.64-2.36,11.61-3.15,0-5.7,0-5.7-.2-.67-.52-1.81a34.91,34.91,0,0,0-7.55,4.56C456.26,417.46,450,416.09,450,416.09Z" style="fill:#263238;stroke:#263238;stroke-miterlimit:10"></path><path d="M441.3,322.22s1.58,18.11,3.94,24.4,2.36,49.2,2.36,52.74-5.71,9.25-5.71,9.25-9.84,7.28-12.59,8.07-4.92,1.77-3.54,2.95,14.95,1.18,19.68,1.18,10.82.2,11.41-.79a15.71,15.71,0,0,0,1-3.93s-1.18-11-.78-15.94,7.47-34.83,6.88-44.87a94,94,0,0,0-3.54-19.68c-.2-.78,1.38-14.36,1.38-14.36Z" style="fill:#fff;stroke:#263238;stroke-miterlimit:10"></path><path d="M457.83,416.09s-.05-.48-.12-1.27c-8.85.69-20.34,1.27-20.34,1.27L436,412.75c-2.64,1.79-5.45,3.56-6.73,3.93-2.76.78-4.92,1.77-3.54,2.95s14.95,1.18,19.68,1.18,10.82.2,11.41-.79A15.71,15.71,0,0,0,457.83,416.09Z" style="fill:#263238;stroke:#263238;stroke-miterlimit:10"></path><path d="M433.29,243.84s-6.35,16-6.75,40.6,1,37,1,37,10,5.12,25,4.53,19.68-3.15,19.68-3.15,4.4-25.19,3.62-42.7-3-21.06-5-26-6-12.22-6-12.22S451.25,247.52,433.29,243.84Z" style="fill:#EEBBC3;stroke:#263238;stroke-miterlimit:10"></path><path d="M455.27,315.14l-2.44-70.47a61.68,61.68,0,0,1-19.54-.83s-6.35,16-6.75,40.6c-.2,12.82.07,22.31.39,28.48C442.52,318.32,455.27,315.14,455.27,315.14Z" style="fill:#fff;stroke:#263238;stroke-miterlimit:10"></path><path d="M461.3,173.1s-15.23,7-17.55,10.07a14,14,0,0,0-2.46,7.1s-13.68,18.59-12.78,23.63,4.13,22.2,4.13,22.2l.39,2.71.26,3.23v1.8a33.88,33.88,0,0,0,16,3.23c9.68-.26,15.23-3.36,15.49-5.16a15,15,0,0,0-.91-6.46c-.64-1.42,3.62-23.36,3.88-33s-3.1-24.92-4.78-27.11Z" style="fill:#EEBBC3;stroke:#263238;stroke-miterlimit:10"></path><path d="M463,175.3l-1.68-2.2s-15.23,7-17.55,10.07a14,14,0,0,0-2.46,7.1s12.9-10.59,22.3-13.79A5.9,5.9,0,0,0,463,175.3Z" style="fill:#fff;stroke:#263238;stroke-miterlimit:10"></path><path d="M449.76,221.88l1,16.13s-4.26,41.05-4.26,42.21.39,13.69,1.29,15.62a11.28,11.28,0,0,0,4.78,4.26,4.17,4.17,0,0,0,3.22-1.81c.78-1.42.26-1.29-.51-1.29h-.78l-1.8-1.16a12.92,12.92,0,0,0,1.67-4.77c.13-2.2-2.32-8.4-2.71-9.17s7.88-32.4,9.17-38.85a64.35,64.35,0,0,0,1.29-11.36l.52-11.11Z" style="fill:#fff;stroke:#263238;stroke-miterlimit:10"></path><path d="M450.2,190s-2.84.91-3.1,6.72-.9,31.36-.9,31.36,1.55.91,10.07-.12,9.55-1.42,9.55-1.42,1.68-30.73-.52-36.54-6.58-7.22-6.58-7.22" style="fill:#EEBBC3;stroke:#263238;stroke-miterlimit:10"></path></g><g id="freepik--Floor--inject-62"><line x1="16.77" y1="420.83" x2="734.64" y2="420.83" style="fill:none;stroke:#263238;stroke-miterlimit:10"></line></g></svg>
