<svg width="1920" height="1080" viewBox="0 0 1920 1080" xmlns="http://www.w3.org/2000/svg"><rect width="1920" height="1080" fill="#b8c1ec"/><path d="M 0,1080 C 0,1080 0,135 0,135 C 44.80127635749395,140.39162159084438 89.6025527149879,145.78324318168876 173,132 C 256.3974472850121,118.21675681831123 378.39106549754223,85.2586488640893 408,94 C 437.60893450245777,102.7413511359107 374.8331852948433,153.1821613619541 417,168 C 459.1668147051567,182.8178386380459 606.2761933230845,162.0127056880943 694,148 C 781.7238066769155,133.9872943119057 810.0620414128185,126.76701588566877 833,137 C 855.9379585871815,147.23298411433123 873.4756410256412,174.91923076923075 929,168 C 984.5243589743588,161.08076923076925 1078.0353944846174,119.55606103740817 1121,123 C 1163.9646055153826,126.44393896259183 1156.3827810358898,174.85652508113648 1211,176 C 1265.6172189641102,177.14347491886352 1382.4334813718233,131.01783863804587 1441,113 C 1499.5665186281767,94.98216136195411 1499.8832934768168,105.07212036667997 1533,122 C 1566.1167065231832,138.92787963332003 1632.0333447209096,162.6936798952343 1702,166 C 1771.9666552790904,169.3063201047657 1845.9833276395452,152.15316005238284 1920,135 C 1920,135 1920,1080 1920,1080 Z" fill="#121629" opacity="0.075"/><path d="M 0,1080 C 0,1080 0,270 0,270 C 69.27179961661828,290.41857693256657 138.54359923323656,310.83715386513313 190,315 C 241.45640076676344,319.16284613486687 275.0974026836721,307.069961472034 298,304 C 320.9025973163279,300.930038527966 333.06679003207495,306.88300024673083 399,287 C 464.93320996792505,267.11699975326917 584.6354371880279,221.39803754104273 663,233 C 741.3645628119721,244.60196245895727 778.3914612158134,313.5248495890983 838,312 C 897.6085387841866,310.4751504109017 979.7987179487179,238.5025641025641 1023,223 C 1066.201282051282,207.4974358974359 1070.4136669893146,248.4648940006453 1112,270 C 1153.5863330106854,291.5351059993547 1232.5466140940232,293.6378598948547 1277,300 C 1321.4533859059768,306.3621401051453 1331.3998766345917,316.98366641993584 1379,298 C 1426.6001233654083,279.01633358006416 1511.8538793676098,230.4274744254019 1604,221 C 1696.1461206323902,211.5725255745981 1795.1846058949686,241.30643587845663 1849,256 C 1902.8153941050314,270.6935641215434 1911.4076970525157,270.3467820607717 1920,270 C 1920,270 1920,1080 1920,1080 Z" fill="#121629" opacity="0.15"/><path d="M 0,1080 C 0,1080 0,405 0,405 C 59.094121163810286,390.9263318719277 118.18824232762057,376.85266374385543 152,382 C 185.81175767237943,387.14733625614457 194.34115185332797,411.51567689650597 235,412 C 275.658848146672,412.48432310349403 348.44715025906737,389.0846286701209 424,371 C 499.55284974093263,352.9153713298791 577.8702471104026,340.14580842301046 638,359 C 698.1297528895974,377.85419157698954 740.0718612993224,428.3321376378371 806,452 C 871.9281387006776,475.6678623621629 961.8423076923077,472.525641025641 1027,451 C 1092.1576923076923,429.474358974359 1132.5589079314466,389.5652982595988 1184,373 C 1235.4410920685534,356.4347017404012 1297.922060581905,363.21316593596384 1352,364 C 1406.077939418095,364.78683406403616 1451.7528497409328,359.5820379965458 1481,375 C 1510.2471502590672,390.4179620034542 1523.066540454364,426.45868207785304 1587,432 C 1650.933459545636,437.54131792214696 1765.9809884416104,412.58323369204203 1830,403 C 1894.0190115583896,393.41676630795797 1907.0095057791948,399.20838315397896 1920,405 C 1920,405 1920,1080 1920,1080 Z" fill="#121629" opacity="0.22499999999999998"/><path d="M 0,1080 C 0,1080 0,540 0,540 C 58.72918635768376,552.1790060543947 117.45837271536752,564.3580121087892 171,562 C 224.54162728463248,559.6419878912108 272.8956954962136,542.7469576192374 347,549 C 421.1043045037864,555.2530423807626 520.958845299778,584.654157414261 559,571 C 597.041154700222,557.345842585739 573.2689233046747,500.63641272371854 582,489 C 590.7310766953253,477.36358727628146 631.9654614815237,510.8001916908652 718,531 C 804.0345385184763,551.1998083091348 934.8692307692309,558.1628205128205 997,548 C 1059.1307692307691,537.8371794871795 1052.5576154415533,510.54852625785264 1085,509 C 1117.4423845584467,507.45147374214736 1188.9003074645561,531.6430744557688 1242,545 C 1295.0996925354439,558.3569255442312 1329.841154700222,560.8791759190723 1379,549 C 1428.158845299778,537.1208240809277 1491.7350737345557,510.8402218679421 1578,516 C 1664.2649262654443,521.1597781320579 1773.2185503615556,557.7599366091594 1834,567 C 1894.7814496384444,576.2400633908406 1907.3907248192222,558.1200316954203 1920,540 C 1920,540 1920,1080 1920,1080 Z" fill="#121629" opacity="0.3"/><path d="M 0,1080 C 0,1080 0,675 0,675 C 96.3300394769307,692.9232762056597 192.6600789538614,710.8465524113193 241,698 C 289.3399210461386,685.1534475886807 289.6897236614853,641.5370665603825 318,625 C 346.3102763385147,608.4629334396175 402.5810264001974,619.0051813471504 482,637 C 561.4189735998026,654.9948186528496 663.9861707377253,680.4422080510162 722,688 C 780.0138292622747,695.5577919489838 793.4742906489021,685.2259864487844 810,674 C 826.5257093510979,662.7740135512156 846.1166666666667,650.6538461538461 880,642 C 913.8833333333333,633.3461538461539 962.0590426844315,628.158628935831 1058,647 C 1153.9409573155685,665.841371064169 1297.6471625956083,708.7116381028299 1364,724 C 1430.3528374043917,739.2883618971701 1419.3523069331359,726.9948186528496 1460,701 C 1500.6476930668641,675.0051813471504 1592.943609671848,635.3090872857713 1668,631 C 1743.056390328152,626.6909127142287 1800.873254379472,657.7688322040655 1840,671 C 1879.126745620528,684.2311677959345 1899.563372810264,679.6155838979673 1920,675 C 1920,675 1920,1080 1920,1080 Z" fill="#121629" opacity="0.375"/><path d="M 0,1080 C 0,1080 0,810 0,810 C 96.93096471749323,786.9029123726015 193.86192943498645,763.8058247452029 226,766 C 258.13807056501355,768.1941752547971 225.48324697754748,795.6796133917895 267,797 C 308.5167530224525,798.3203866082105 424.2050826548236,773.4757216876387 471,778 C 517.7949173451764,782.5242783123613 495.6964224031582,816.4174998576552 554,827 C 612.3035775968418,837.5825001423448 751.009227732544,824.8542788817401 844,824 C 936.990772267456,823.1457211182599 984.2666666666667,834.1653846153846 1004,845 C 1023.7333333333333,855.8346153846154 1015.9241056007895,866.4841826567216 1060,852 C 1104.0758943992105,837.5158173432784 1200.0369109301753,797.8978847577292 1288,786 C 1375.9630890698247,774.1021152422708 1455.9282506785096,789.9242783123613 1495,803 C 1534.0717493214904,816.0757216876387 1532.250086355786,826.4050019928258 1569,822 C 1605.749913644214,817.5949980071742 1681.0714038983467,798.4557137163355 1746,794 C 1810.9285961016533,789.5442862836645 1865.4642980508265,799.7721431418322 1920,810 C 1920,810 1920,1080 1920,1080 Z" fill="#121629" opacity="0.44999999999999996"/><path d="M 0,1080 C 0,1080 0,945 0,945 C 40.77911328740345,947.9773757330752 81.5582265748069,950.9547514661505 127,950 C 172.4417734251931,949.0452485338495 222.54620698817587,944.1583698684736 271,953 C 319.45379301182413,961.8416301315264 366.25694547248963,984.4117690599554 458,981 C 549.7430545275104,977.5882309400446 686.426011121866,948.1945538917042 714,947 C 741.573988878134,945.8054461082958 660.0390100400464,972.8100153732279 710,984 C 759.9609899599536,995.1899846267721 941.4179487179485,990.5653846153846 1035,969 C 1128.5820512820515,947.4346153846154 1134.289195088159,908.9284461652338 1166,906 C 1197.710804911841,903.0715538347662 1255.425270929416,935.7208307236805 1274,956 C 1292.574729070584,976.2791692763195 1272.0097211941772,984.1882309400444 1351,986 C 1429.9902788058228,987.8117690599556 1608.5358442938752,983.5262455161419 1687,978 C 1765.4641557061248,972.4737544838581 1743.8469016303213,965.706786995388 1766,960 C 1788.1530983696787,954.293213004612 1854.0765491848392,949.646606502306 1920,945 C 1920,945 1920,1080 1920,1080 Z" fill="#121629" opacity="0.525"/></svg>