<svg width="1920" height="1080" viewBox="0 0 1920 1080" xmlns="http://www.w3.org/2000/svg"><rect width="1920" height="1080" fill="#232946"/><path d="M 0,1080 C 0,1080 0,180 0,180 C 126.16865367839486,140.08266145021014 252.33730735678972,100.1653229004203 342,117 C 431.6626926432103,133.8346770995797 484.8194242512358,207.42136984852888 556,213 C 627.1805757487642,218.57863015147112 716.3849956382671,156.14919770546408 778,129 C 839.6150043617329,101.85080229453594 873.6405931956963,109.98183932961484 949,118 C 1024.3594068043037,126.01816067038516 1141.0526315789475,133.92344497607655 1196,131 C 1250.9473684210525,128.07655502392345 1244.1488804885141,114.32438076607892 1255,117 C 1265.8511195114859,119.67561923392108 1294.3518464669962,138.77903195960772 1344,144 C 1393.6481535330038,149.22096804039228 1464.443733643501,140.5594913954902 1614,157 C 1763.556266356499,173.4405086045098 1991.8732189589996,214.98300245843137 2056,223 C 2120.1267810410004,231.01699754156863 2020.0633905205002,205.5084987707843 1920,180 C 1920,180 1920,1080 1920,1080 Z" fill="#b8c1ec" opacity="0.09999999999999999"/><path d="M 0,1080 C 0,1080 0,360 0,360 C 110.7147823098681,370.52587961616746 221.4295646197362,381.051759232335 254,366 C 286.5704353802638,350.948240767665 240.9965238309233,310.31884268682757 307,299 C 373.0034761690767,287.68115731317243 550.5843400565703,305.67287002035476 677,316 C 803.4156599434297,326.32712997964524 878.6661159427954,328.9896772317534 951,349 C 1023.3338840572046,369.0103227682466 1092.7511961722487,406.36842105263156 1106,420 C 1119.2488038277513,433.63157894736844 1076.3290993682094,423.5366385577203 1163,424 C 1249.6709006317906,424.4633614422797 1465.932406354913,435.4850247164873 1553,424 C 1640.067593645087,412.5149752835127 1597.941275212139,378.5232625763303 1677,365 C 1756.058724787861,351.4767374236697 1956.3024927965316,358.4219249781914 2017,361 C 2077.6975072034684,363.5780750218086 1998.8487536017342,361.78903751090434 1920,360 C 1920,360 1920,1080 1920,1080 Z" fill="#b8c1ec" opacity="0.19999999999999998"/><path d="M 0,1080 C 0,1080 0,540 0,540 C 13.532633693727036,547.6442015385022 27.06526738745407,555.2884030770044 112,549 C 196.93473261254593,542.7115969229956 353.2715641439107,522.4905892304846 495,504 C 636.7284358560893,485.5094107695154 763.848476036903,468.7492400010574 794,491 C 824.151523963097,513.2507599989426 757.3345317084775,574.5124507652858 809,600 C 860.6654682915225,625.4875492347142 1030.8133971291868,615.2009569377991 1126,605 C 1221.1866028708132,594.7990430622009 1241.4118797747758,584.683721483518 1339,584 C 1436.5881202252242,583.316278516482 1611.5390837717098,592.0641571281292 1629,582 C 1646.4609162282902,571.9358428718708 1506.4317851383857,543.0596500039653 1550,535 C 1593.5682148616143,526.9403499960347 1820.733775674747,539.6972428560099 1913,544 C 2005.266224325253,548.3027571439901 1962.6331121626265,544.1513785719951 1920,540 C 1920,540 1920,1080 1920,1080 Z" fill="#b8c1ec" opacity="0.3"/><path d="M 0,1080 C 0,1080 0,720 0,720 C 101.43806339052051,732.1440297126543 202.87612678104102,744.2880594253086 306,751 C 409.123873218959,757.7119405746914 513.9335562663565,758.9917920114198 534,760 C 554.0664437336435,761.0082079885802 489.3896481535329,761.7447725290123 506,733 C 522.6103518464671,704.2552274709877 620.5078511195117,646.0291178725316 700,656 C 779.4921488804883,665.9708821274684 840.578947368421,744.1387559808612 934,740 C 1027.421052631579,735.8612440191388 1153.1763594068043,649.4158582040234 1252,653 C 1350.8236405931957,656.5841417959766 1422.715615004362,750.1978112030451 1518,767 C 1613.284384995638,783.8021887969549 1731.9611805757488,723.7928969837956 1824,694 C 1916.0388194242512,664.2071030162044 1981.4396626926432,664.6306008617727 1993,674 C 2004.5603373073568,683.3693991382273 1962.2801686536784,701.6846995691137 1920,720 C 1920,720 1920,1080 1920,1080 Z" fill="#b8c1ec" opacity="0.39999999999999997"/><path d="M 0,1080 C 0,1080 0,900 0,900 C 115.08794839937613,912.5563324433635 230.17589679875226,925.1126648867272 319,928 C 407.82410320124774,930.8873351132728 470.384361204367,924.1056728964552 541,931 C 611.615638795633,937.8943271035448 690.2866583837796,958.4646435274524 752,947 C 813.7133416162204,935.5353564725476 858.4690052605145,892.035752993735 858,878 C 857.5309947394855,863.964247006265 811.8373205741624,879.3923444976076 907,909 C 1002.1626794258376,938.6076555023924 1238.181712442835,982.3948690158345 1382,966 C 1525.818287557165,949.6051309841655 1577.4358296544979,873.0281794390548 1622,863 C 1666.5641703455021,852.9718205609452 1704.0749689391735,909.4924132279468 1774,918 C 1843.9250310608265,926.5075867720532 1946.2642945888076,887.0021676491581 1976,876 C 2005.7357054111924,864.9978323508419 1962.8678527055963,882.498916175421 1920,900 C 1920,900 1920,1080 1920,1080 Z" fill="#b8c1ec" opacity="0.49999999999999994"/></svg>